# xmcd CD database file
#
# Track frame offsets:
#	150
#	82167
#	149395
#	210939
#	258569
#
# Disc length: 4207 seconds
#
# Revision: 0
# Processed by: cddbd v1.5PL3 Copyright (c) Steve Scherf et al.
# Submitted via: CDex 1.51
#
DISCID=44106d05
DTITLE=Shakti with John McLaughlin - Remember Shakti CD1
DYEAR=1999
DGENRE=Jazz
TTITLE0=5 in the Morning, 6 in the Afternoon
TTITLE1=Ma No Pa
TTITLE2=Lotus Feet
TTITLE3=Anna
TTITLE4=Finding the Way
EXTD=YEAR: 1999
EXTT0=
EXTT1=
EXTT2=
EXTT3=
EXTT4=
PLAYORDER=
